<svg width="41" height="41" viewBox="0 0 41 41" fill="none" xmlns="http://www.w3.org/2000/svg">
<path d="M20.5 41C17.6729 41 15.0199 40.4641 12.5412 39.3922C10.0624 38.3337 7.88513 36.8665 6.00931 34.9907C4.1335 33.1015 2.65964 30.9242 1.58775 28.4588C0.529248 25.9801 0 23.3271 0 20.5C0 17.6729 0.529248 15.0199 1.58775 12.5412C2.65964 10.0624 4.1335 7.88513 6.00931 6.00931C7.88513 4.1335 10.0624 2.66634 12.5412 1.60784C15.0199 0.535948 17.6729 0 20.5 0C23.3271 0 25.9801 0.535948 28.4588 1.60784C30.9376 2.66634 33.1149 4.1335 34.9907 6.00931C36.8665 7.88513 38.3337 10.0624 39.3922 12.5412C40.4641 15.0199 41 17.6729 41 20.5C41 23.3271 40.4641 25.9801 39.3922 28.4588C38.3337 30.9242 36.8665 33.1015 34.9907 34.9907C33.1149 36.8665 30.9376 38.3337 28.4588 39.3922C25.9801 40.4641 23.3271 41 20.5 41ZM24.4794 30.4284C24.7876 30.1337 24.9417 29.7719 24.9417 29.3431C24.9417 28.9144 24.7943 28.5593 24.4995 28.2779L16.2392 20.5L24.4995 12.7422C24.8077 12.4474 24.9551 12.0856 24.9417 11.6569C24.9283 11.2281 24.7675 10.873 24.4593 10.5917C24.1779 10.3103 23.8296 10.1763 23.4142 10.1897C23.0123 10.2031 22.6572 10.3572 22.349 10.652L13.9681 18.5304C13.593 18.8788 13.3384 19.2941 13.2044 19.7765C13.0838 20.2588 13.0838 20.7412 13.2044 21.2235C13.3384 21.7059 13.593 22.1212 13.9681 22.4696L22.349 30.3681C22.6304 30.6361 22.9855 30.7768 23.4142 30.7902C23.8564 30.8036 24.2114 30.683 24.4794 30.4284Z" fill="#8A8A8A"/>
</svg>
