<svg width="41" height="41" viewBox="0 0 41 41" fill="none" xmlns="http://www.w3.org/2000/svg">
<path d="M20.5 41C17.6729 41 15.0199 40.4641 12.5412 39.3922C10.0624 38.3337 7.88513 36.8665 6.00931 34.9907C4.1335 33.1015 2.65964 30.9242 1.58775 28.4588C0.529248 25.9801 0 23.3271 0 20.5C0 17.6729 0.529248 15.0199 1.58775 12.5412C2.65964 10.0624 4.1335 7.88513 6.00931 6.00931C7.88513 4.1335 10.0624 2.66634 12.5412 1.60784C15.0199 0.535948 17.6729 0 20.5 0C23.3271 0 25.9801 0.535948 28.4588 1.60784C30.9376 2.66634 33.1149 4.1335 34.9907 6.00931C36.8665 7.88513 38.3337 10.0624 39.3922 12.5412C40.4641 15.0199 41 17.6729 41 20.5C41 23.3271 40.4641 25.9801 39.3922 28.4588C38.3337 30.9242 36.8665 33.1015 34.9907 34.9907C33.1149 36.8665 30.9376 38.3337 28.4588 39.3922C25.9801 40.4641 23.3271 41 20.5 41ZM15.7569 30.7701C16.0248 31.0247 16.3866 31.1453 16.8422 31.1319C17.2977 31.1185 17.6729 30.9711 17.9676 30.6897L26.5897 22.5701C26.9917 22.2083 27.2529 21.7796 27.3735 21.2838C27.5075 20.7747 27.5075 20.2722 27.3735 19.7765C27.2529 19.2673 26.9917 18.8319 26.5897 18.4701L17.9676 10.3706C17.6461 10.0624 17.2709 9.90163 16.8422 9.88824C16.4268 9.86144 16.0717 9.99543 15.777 10.2902C15.4554 10.5984 15.2879 10.9735 15.2745 11.4157C15.2611 11.8578 15.4152 12.2263 15.7368 12.5211L24.2583 20.5201L15.7368 28.5392C15.4286 28.834 15.2745 29.2025 15.2745 29.6446C15.2745 30.0734 15.4353 30.4485 15.7569 30.7701Z" fill="#8A8A8A"/>
</svg>
